# Wavefront OBJ: Roadside Palm Tree
# Exported by RustTracker Toolchain

v -0.166704 0.000000 -0.210000
v 0.253296 0.000000 -0.210000
v 0.253296 1.000000 -0.210000
v -0.166704 1.000000 -0.210000
v -0.166704 0.000000 0.210000
v 0.253296 0.000000 0.210000
v 0.253296 1.000000 0.210000
v -0.166704 1.000000 0.210000
v -0.062805 1.000000 -0.190000
v 0.317195 1.000000 -0.190000
v 0.317195 2.000000 -0.190000
v -0.062805 2.000000 -0.190000
v -0.062805 1.000000 0.190000
v 0.317195 1.000000 0.190000
v 0.317195 2.000000 0.190000
v -0.062805 2.000000 0.190000
v 0.033186 2.000000 -0.170000
v 0.373186 2.000000 -0.170000
v 0.373186 3.000000 -0.170000
v 0.033186 3.000000 -0.170000
v 0.033186 2.000000 0.170000
v 0.373186 2.000000 0.170000
v 0.373186 3.000000 0.170000
v 0.033186 3.000000 0.170000
v 0.116544 3.000000 -0.150000
v 0.416544 3.000000 -0.150000
v 0.416544 4.000000 -0.150000
v 0.116544 4.000000 -0.150000
v 0.116544 3.000000 0.150000
v 0.416544 3.000000 0.150000
v 0.416544 4.000000 0.150000
v 0.116544 4.000000 0.150000
v 0.183330 4.000000 -0.130000
v 0.443330 4.000000 -0.130000
v 0.443330 5.000000 -0.130000
v 0.183330 5.000000 -0.130000
v 0.183330 4.000000 0.130000
v 0.443330 4.000000 0.130000
v 0.443330 5.000000 0.130000
v 0.183330 5.000000 0.130000
v 0.230634 5.000000 -0.110000
v 0.450634 5.000000 -0.110000
v 0.450634 6.000000 -0.110000
v 0.230634 6.000000 -0.110000
v 0.230634 5.000000 0.110000
v 0.450634 5.000000 0.110000
v 0.450634 6.000000 0.110000
v 0.230634 6.000000 0.110000
v 0.349123 6.000000 0.000000
v 1.789123 6.450000 0.000000
v 3.949123 5.500000 0.000000
v 2.149123 5.800000 0.000000
v 0.349123 6.000000 0.000000
v 1.367357 6.450000 1.018234
v 2.894708 5.500000 2.545584
v 1.621915 5.800000 1.272792
v 0.349123 6.000000 0.000000
v 0.349123 6.450000 1.440000
v 0.349123 5.500000 3.600000
v 0.349123 5.800000 1.800000
v 0.349123 6.000000 0.000000
v -0.669111 6.450000 1.018234
v -2.196461 5.500000 2.545584
v -0.923669 5.800000 1.272792
v 0.349123 6.000000 0.000000
v -1.090877 6.450000 0.000000
v -3.250877 5.500000 0.000000
v -1.450877 5.800000 0.000000
v 0.349123 6.000000 0.000000
v -0.669111 6.450000 -1.018234
v -2.196461 5.500000 -2.545584
v -0.923669 5.800000 -1.272792
v 0.349123 6.000000 0.000000
v 0.349123 6.450000 -1.440000
v 0.349123 5.500000 -3.600000
v 0.349123 5.800000 -1.800000
v 0.349123 6.000000 0.000000
v 1.367357 6.450000 -1.018234
v 2.894708 5.500000 -2.545584
v 1.621915 5.800000 -1.272792

vn -0.837297 -0.351665 -0.418648
vn 0.439528 -0.184602 -0.879055
vn 0.837297 0.351665 -0.418648
vn -0.439528 0.184602 -0.879055
vn -0.439528 -0.184602 0.879055
vn 0.837297 -0.351665 0.418648
vn 0.439528 0.184602 0.879055
vn -0.837297 0.351665 0.418648
vn -0.846850 -0.321803 -0.423425
vn 0.440892 -0.167539 -0.881785
vn 0.846850 0.321803 -0.423425
vn -0.440892 0.167539 -0.881785
vn -0.440892 -0.167539 0.881785
vn 0.846850 -0.321803 0.423425
vn 0.440892 0.167539 0.881785
vn -0.846850 0.321803 0.423425
vn -0.855733 -0.290949 -0.427866
vn 0.442132 -0.150325 -0.884264
vn 0.855733 0.290949 -0.427866
vn -0.442132 0.150325 -0.884264
vn -0.442132 -0.150325 0.884264
vn 0.855733 -0.290949 0.427866
vn 0.442132 0.150325 0.884264
vn -0.855733 0.290949 0.427866
vn -0.863868 -0.259161 -0.431934
vn 0.443242 -0.132973 -0.886484
vn 0.863868 0.259161 -0.431934
vn -0.443242 0.132973 -0.886484
vn -0.443242 -0.132973 0.886484
vn 0.863868 -0.259161 0.431934
vn 0.443242 0.132973 0.886484
vn -0.863868 0.259161 0.431934
vn -0.871181 -0.226507 -0.435590
vn 0.444221 -0.115497 -0.888441
vn 0.871181 0.226507 -0.435590
vn -0.444221 0.115497 -0.888441
vn -0.444221 -0.115497 0.888441
vn 0.871181 -0.226507 0.435590
vn 0.444221 0.115497 0.888441
vn -0.871181 0.226507 0.435590
vn -0.877598 -0.193072 -0.438799
vn 0.445065 -0.097914 -0.890129
vn 0.877598 0.193072 -0.438799
vn -0.445065 0.097914 -0.890129
vn -0.445065 -0.097914 0.890129
vn 0.877598 -0.193072 0.438799
vn 0.445065 0.097914 0.890129
vn -0.877598 0.193072 0.438799
vn 0.000000 0.000000 -1.000000
vn 0.000000 0.000000 -1.000000
vn 0.000000 0.000000 -1.000000
vn 0.000000 0.000000 -1.000000
vn 0.707107 0.000000 -0.707107
vn 0.707107 0.000000 -0.707107
vn 0.707107 0.000000 -0.707107
vn 0.707107 0.000000 -0.707107
vn 1.000000 -0.000000 -0.000000
vn 1.000000 -0.000000 -0.000000
vn 1.000000 -0.000000 -0.000000
vn 1.000000 -0.000000 -0.000000
vn 0.707107 0.000000 0.707107
vn 0.707107 -0.000000 0.707107
vn 0.707107 -0.000000 0.707107
vn 0.707107 -0.000000 0.707107
vn 0.000000 0.000000 1.000000
vn 0.000000 0.000000 1.000000
vn 0.000000 0.000000 1.000000
vn 0.000000 0.000000 1.000000
vn -0.707107 -0.000000 0.707107
vn -0.707107 -0.000000 0.707107
vn -0.707107 -0.000000 0.707107
vn -0.707107 -0.000000 0.707107
vn -1.000000 -0.000000 0.000000
vn -1.000000 -0.000000 0.000000
vn -1.000000 -0.000000 0.000000
vn -1.000000 -0.000000 0.000000
vn -0.707107 -0.000000 -0.707107
vn -0.707107 -0.000000 -0.707107
vn -0.707107 -0.000000 -0.707107
vn -0.707107 -0.000000 -0.707107

g trunk
f 5//5 6//6 7//7
f 5//5 7//7 8//8
f 2//2 1//1 4//4
f 2//2 4//4 3//3
f 1//1 5//5 8//8
f 1//1 8//8 4//4
f 6//6 2//2 3//3
f 6//6 3//3 7//7
f 8//8 7//7 3//3
f 8//8 3//3 4//4
f 1//1 2//2 6//6
f 1//1 6//6 5//5
f 13//13 14//14 15//15
f 13//13 15//15 16//16
f 10//10 9//9 12//12
f 10//10 12//12 11//11
f 9//9 13//13 16//16
f 9//9 16//16 12//12
f 14//14 10//10 11//11
f 14//14 11//11 15//15
f 16//16 15//15 11//11
f 16//16 11//11 12//12
f 9//9 10//10 14//14
f 9//9 14//14 13//13
f 21//21 22//22 23//23
f 21//21 23//23 24//24
f 18//18 17//17 20//20
f 18//18 20//20 19//19
f 17//17 21//21 24//24
f 17//17 24//24 20//20
f 22//22 18//18 19//19
f 22//22 19//19 23//23
f 24//24 23//23 19//19
f 24//24 19//19 20//20
f 17//17 18//18 22//22
f 17//17 22//22 21//21
f 29//29 30//30 31//31
f 29//29 31//31 32//32
f 26//26 25//25 28//28
f 26//26 28//28 27//27
f 25//25 29//29 32//32
f 25//25 32//32 28//28
f 30//30 26//26 27//27
f 30//30 27//27 31//31
f 32//32 31//31 27//27
f 32//32 27//27 28//28
f 25//25 26//26 30//30
f 25//25 30//30 29//29
f 37//37 38//38 39//39
f 37//37 39//39 40//40
f 34//34 33//33 36//36
f 34//34 36//36 35//35
f 33//33 37//37 40//40
f 33//33 40//40 36//36
f 38//38 34//34 35//35
f 38//38 35//35 39//39
f 40//40 39//39 35//35
f 40//40 35//35 36//36
f 33//33 34//34 38//38
f 33//33 38//38 37//37
f 45//45 46//46 47//47
f 45//45 47//47 48//48
f 42//42 41//41 44//44
f 42//42 44//44 43//43
f 41//41 45//45 48//48
f 41//41 48//48 44//44
f 46//46 42//42 43//43
f 46//46 43//43 47//47
f 48//48 47//47 43//43
f 48//48 43//43 44//44
f 41//41 42//42 46//46
f 41//41 46//46 45//45

g frond
f 49//49 50//50 52//52
f 50//50 51//51 52//52
f 53//53 54//54 56//56
f 54//54 55//55 56//56
f 57//57 58//58 60//60
f 58//58 59//59 60//60
f 61//61 62//62 64//64
f 62//62 63//63 64//64
f 65//65 66//66 68//68
f 66//66 67//67 68//68
f 69//69 70//70 72//72
f 70//70 71//71 72//72
f 73//73 74//74 76//76
f 74//74 75//75 76//76
f 77//77 78//78 80//80
f 78//78 79//79 80//80

