# Wavefront OBJ: Art-Deco Cyberpunk Skyscraper
# Exported by RustTracker Toolchain

v -9.000000 0.000000 -9.000000
v 9.000000 0.000000 -9.000000
v 9.000000 44.000000 -9.000000
v -9.000000 44.000000 -9.000000
v -9.000000 0.000000 9.000000
v 9.000000 0.000000 9.000000
v 9.000000 44.000000 9.000000
v -9.000000 44.000000 9.000000
v -7.000000 44.000000 -7.000000
v 7.000000 44.000000 -7.000000
v 7.000000 60.000000 -7.000000
v -7.000000 60.000000 -7.000000
v -7.000000 44.000000 7.000000
v 7.000000 44.000000 7.000000
v 7.000000 60.000000 7.000000
v -7.000000 60.000000 7.000000
v -5.000000 60.000000 -5.000000
v 5.000000 60.000000 -5.000000
v 5.000000 72.000000 -5.000000
v -5.000000 72.000000 -5.000000
v -5.000000 60.000000 5.000000
v 5.000000 60.000000 5.000000
v 5.000000 72.000000 5.000000
v -5.000000 72.000000 5.000000
v -3.000000 72.000000 -3.000000
v 3.000000 72.000000 -3.000000
v 3.000000 78.000000 -3.000000
v -3.000000 78.000000 -3.000000
v -3.000000 72.000000 3.000000
v 3.000000 72.000000 3.000000
v 3.000000 78.000000 3.000000
v -3.000000 78.000000 3.000000
v -0.300000 78.000000 -0.300000
v 0.300000 78.000000 -0.300000
v 0.300000 90.000000 -0.300000
v -0.300000 90.000000 -0.300000
v -0.300000 78.000000 0.300000
v 0.300000 78.000000 0.300000
v 0.300000 90.000000 0.300000
v -0.300000 90.000000 0.300000

vn -0.839964 -0.343622 -0.419982
vn 0.439912 -0.179964 -0.879824
vn 0.839964 0.343622 -0.419982
vn -0.439912 0.179964 -0.879824
vn -0.439912 -0.179964 0.879824
vn 0.839964 -0.343622 0.419982
vn 0.439912 0.179964 0.879824
vn -0.839964 0.343622 0.419982
vn -0.704361 -0.616316 -0.352180
vn 0.416463 -0.364405 -0.832927
vn 0.704361 0.616316 -0.352180
vn -0.416463 0.364405 -0.832927
vn -0.416463 -0.364405 0.832927
vn 0.704361 -0.616316 0.352180
vn 0.416463 0.364405 0.832927
vn -0.704361 0.616316 0.352180
vn -0.717137 -0.597614 -0.358569
vn 0.419058 -0.349215 -0.838116
vn 0.717137 0.597614 -0.358569
vn -0.419058 0.349215 -0.838116
vn -0.419058 -0.349215 0.838116
vn 0.717137 -0.597614 0.358569
vn 0.419058 0.349215 0.838116
vn -0.717137 0.597614 0.358569
vn -0.666667 -0.666667 -0.333333
vn 0.408248 -0.408248 -0.816497
vn 0.666667 0.666667 -0.333333
vn -0.408248 0.408248 -0.816497
vn -0.408248 -0.408248 0.816497
vn 0.666667 -0.666667 0.333333
vn 0.408248 0.408248 0.816497
vn -0.666667 0.666667 0.333333
vn -0.893534 -0.044677 -0.446767
vn 0.447102 -0.022355 -0.894204
vn 0.893534 0.044677 -0.446767
vn -0.447102 0.022355 -0.894204
vn -0.447102 -0.022355 0.894204
vn 0.893534 -0.044677 0.446767
vn 0.447102 0.022355 0.894204
vn -0.893534 0.044677 0.446767

g tower
f 5//5 6//6 7//7
f 5//5 7//7 8//8
f 2//2 1//1 4//4
f 2//2 4//4 3//3
f 1//1 5//5 8//8
f 1//1 8//8 4//4
f 6//6 2//2 3//3
f 6//6 3//3 7//7
f 8//8 7//7 3//3
f 8//8 3//3 4//4
f 1//1 2//2 6//6
f 1//1 6//6 5//5
f 13//13 14//14 15//15
f 13//13 15//15 16//16
f 10//10 9//9 12//12
f 10//10 12//12 11//11
f 9//9 13//13 16//16
f 9//9 16//16 12//12
f 14//14 10//10 11//11
f 14//14 11//11 15//15
f 16//16 15//15 11//11
f 16//16 11//11 12//12
f 9//9 10//10 14//14
f 9//9 14//14 13//13
f 21//21 22//22 23//23
f 21//21 23//23 24//24
f 18//18 17//17 20//20
f 18//18 20//20 19//19
f 17//17 21//21 24//24
f 17//17 24//24 20//20
f 22//22 18//18 19//19
f 22//22 19//19 23//23
f 24//24 23//23 19//19
f 24//24 19//19 20//20
f 17//17 18//18 22//22
f 17//17 22//22 21//21
f 29//29 30//30 31//31
f 29//29 31//31 32//32
f 26//26 25//25 28//28
f 26//26 28//28 27//27
f 25//25 29//29 32//32
f 25//25 32//32 28//28
f 30//30 26//26 27//27
f 30//30 27//27 31//31
f 32//32 31//31 27//27
f 32//32 27//27 28//28
f 25//25 26//26 30//30
f 25//25 30//30 29//29

g spire
f 37//37 38//38 39//39
f 37//37 39//39 40//40
f 34//34 33//33 36//36
f 34//34 36//36 35//35
f 33//33 37//37 40//40
f 33//33 40//40 36//36
f 38//38 34//34 35//35
f 38//38 35//35 39//39
f 40//40 39//39 35//35
f 40//40 35//35 36//36
f 33//33 34//34 38//38
f 33//33 38//38 37//37

