# Wavefront OBJ: Cobra-Head Highway Streetlamp
# Exported by RustTracker Toolchain

v -0.175000 0.000000 -0.175000
v 0.175000 0.000000 -0.175000
v 0.175000 7.000000 -0.175000
v -0.175000 7.000000 -0.175000
v -0.175000 0.000000 0.175000
v 0.175000 0.000000 0.175000
v 0.175000 7.000000 0.175000
v -0.175000 7.000000 0.175000
v -0.150000 7.000000 -0.150000
v 0.150000 7.000000 -0.150000
v 0.150000 7.000000 0.150000
v -0.150000 7.000000 0.150000
v -1.800000 8.200000 -0.120000
v -1.500000 8.200000 -0.120000
v -1.500000 8.200000 0.120000
v -1.800000 8.200000 0.120000
v -2.750000 8.010000 -0.275000
v -1.650000 8.010000 -0.275000
v -1.650000 8.190000 -0.275000
v -2.750000 8.190000 -0.275000
v -2.750000 8.010000 0.275000
v -1.650000 8.010000 0.275000
v -1.650000 8.190000 0.275000
v -2.750000 8.190000 0.275000

vn -0.893534 -0.044677 -0.446767
vn 0.447102 -0.022355 -0.894204
vn 0.893534 0.044677 -0.446767
vn -0.447102 0.022355 -0.894204
vn -0.447102 -0.022355 0.894204
vn 0.893534 -0.044677 0.446767
vn 0.447102 0.022355 0.894204
vn -0.893534 0.044677 0.446767
vn 0.384740 0.509780 0.769480
vn -0.555757 -0.771884 0.308754
vn -0.377140 -0.537425 -0.754281
vn 0.562431 0.765532 -0.312462
vn 0.562431 0.765532 0.312462
vn -0.327624 -0.470960 0.819060
vn -0.555757 -0.771884 -0.308754
vn 0.333841 0.438166 -0.834602
vn -0.159423 -0.974253 -0.159423
vn 0.135649 -0.828968 -0.542597
vn 0.159423 0.974253 -0.159423
vn -0.135649 0.828968 -0.542597
vn -0.135649 -0.828968 0.542597
vn 0.159423 -0.974253 0.159423
vn 0.135649 0.828968 0.542597
vn -0.159423 0.974253 0.159423

g mast
f 5//5 6//6 7//7
f 5//5 7//7 8//8
f 2//2 1//1 4//4
f 2//2 4//4 3//3
f 1//1 5//5 8//8
f 1//1 8//8 4//4
f 6//6 2//2 3//3
f 6//6 3//3 7//7
f 8//8 7//7 3//3
f 8//8 3//3 4//4
f 1//1 2//2 6//6
f 1//1 6//6 5//5
f 9//9 10//10 14//14
f 9//9 14//14 13//13
f 10//10 11//11 15//15
f 10//10 15//15 14//14
f 11//11 12//12 16//16
f 11//11 16//16 15//15
f 12//12 9//9 13//13
f 12//12 13//13 16//16

g lamp
f 21//21 22//22 23//23
f 21//21 23//23 24//24
f 18//18 17//17 20//20
f 18//18 20//20 19//19
f 17//17 21//21 24//24
f 17//17 24//24 20//20
f 22//22 18//18 19//19
f 22//22 19//19 23//23
f 24//24 23//23 19//19
f 24//24 19//19 20//20
f 17//17 18//18 22//22
f 17//17 22//22 21//21

