# Wavefront OBJ: Supercar F40 / Countach
# Exported by RustTracker Toolchain

v 0.000000 -0.040000 2.150000
v -0.850000 -0.040000 2.050000
v 0.850000 -0.040000 2.050000
v 0.000000 0.160000 0.750000
v -0.900000 0.150000 0.750000
v 0.900000 0.150000 0.750000
v -1.020000 0.080000 1.850000
v -1.050000 0.220000 1.150000
v -1.020000 0.100000 0.750000
v 1.020000 0.080000 1.850000
v 1.050000 0.220000 1.150000
v 1.020000 0.100000 0.750000
v -0.680000 0.480000 0.050000
v 0.680000 0.480000 0.050000
v -0.700000 0.480000 -0.480000
v 0.700000 0.480000 -0.480000
v -1.060000 0.220000 -0.400000
v -1.080000 0.240000 -1.050000
v -1.040000 0.180000 -1.820000
v 1.060000 0.220000 -0.400000
v 1.080000 0.240000 -1.050000
v 1.040000 0.180000 -1.820000
v 0.000000 0.180000 -1.350000
v -0.800000 0.180000 -1.350000
v 0.800000 0.180000 -1.350000
v -0.980000 0.160000 -1.850000
v 0.980000 0.160000 -1.850000
v -0.950000 -0.040000 -1.850000
v 0.950000 -0.040000 -1.850000
v -1.030000 0.130000 -1.900000
v -0.970000 0.130000 -1.900000
v -0.970000 0.510000 -1.900000
v -1.030000 0.510000 -1.900000
v -1.030000 0.130000 -1.660000
v -0.970000 0.130000 -1.660000
v -0.970000 0.510000 -1.660000
v -1.030000 0.510000 -1.660000
v 0.970000 0.130000 -1.900000
v 1.030000 0.130000 -1.900000
v 1.030000 0.510000 -1.900000
v 0.970000 0.510000 -1.900000
v 0.970000 0.130000 -1.660000
v 1.030000 0.130000 -1.660000
v 1.030000 0.510000 -1.660000
v 0.970000 0.510000 -1.660000
v -1.125000 0.480000 -1.960000
v 1.125000 0.480000 -1.960000
v 1.125000 0.520000 -1.960000
v -1.125000 0.520000 -1.960000
v -1.125000 0.480000 -1.640000
v 1.125000 0.480000 -1.640000
v 1.125000 0.520000 -1.640000
v -1.125000 0.520000 -1.640000
v -1.155000 0.410000 -1.980000
v -1.125000 0.410000 -1.980000
v -1.125000 0.590000 -1.980000
v -1.155000 0.590000 -1.980000
v -1.155000 0.410000 -1.620000
v -1.125000 0.410000 -1.620000
v -1.125000 0.590000 -1.620000
v -1.155000 0.590000 -1.620000
v 1.125000 0.410000 -1.980000
v 1.155000 0.410000 -1.980000
v 1.155000 0.590000 -1.980000
v 1.125000 0.590000 -1.980000
v 1.125000 0.410000 -1.620000
v 1.155000 0.410000 -1.620000
v 1.155000 0.590000 -1.620000
v 1.125000 0.590000 -1.620000
v -1.025000 -0.110000 2.040000
v 1.025000 -0.110000 2.040000
v 1.025000 -0.070000 2.040000
v -1.025000 -0.070000 2.040000
v -1.025000 -0.110000 2.320000
v 1.025000 -0.110000 2.320000
v 1.025000 -0.070000 2.320000
v -1.025000 -0.070000 2.320000
v -1.090000 -0.090000 -1.850000
v -1.010000 -0.090000 -1.850000
v -1.010000 -0.030000 -1.850000
v -1.090000 -0.030000 -1.850000
v -1.090000 -0.090000 1.850000
v -1.010000 -0.090000 1.850000
v -1.010000 -0.030000 1.850000
v -1.090000 -0.030000 1.850000
v 1.010000 -0.090000 -1.850000
v 1.090000 -0.090000 -1.850000
v 1.090000 -0.030000 -1.850000
v 1.010000 -0.030000 -1.850000
v 1.010000 -0.090000 1.850000
v 1.090000 -0.090000 1.850000
v 1.090000 -0.030000 1.850000
v 1.010000 -0.030000 1.850000
v -0.970000 -0.100000 -1.940000
v 0.970000 -0.100000 -1.940000
v 0.970000 -0.040000 -1.940000
v -0.970000 -0.040000 -1.940000
v -0.970000 -0.100000 -1.740000
v 0.970000 -0.100000 -1.740000
v 0.970000 -0.040000 -1.740000
v -0.970000 -0.040000 -1.740000
v -0.820000 0.030000 -1.885000
v -0.620000 0.030000 -1.885000
v -0.620000 0.150000 -1.885000
v -0.820000 0.150000 -1.885000
v -0.820000 0.030000 -1.855000
v -0.620000 0.030000 -1.855000
v -0.620000 0.150000 -1.855000
v -0.820000 0.150000 -1.855000
v -0.520000 0.030000 -1.885000
v -0.320000 0.030000 -1.885000
v -0.320000 0.150000 -1.885000
v -0.520000 0.150000 -1.885000
v -0.520000 0.030000 -1.855000
v -0.320000 0.030000 -1.855000
v -0.320000 0.150000 -1.855000
v -0.520000 0.150000 -1.855000
v 0.320000 0.030000 -1.885000
v 0.520000 0.030000 -1.885000
v 0.520000 0.150000 -1.885000
v 0.320000 0.150000 -1.885000
v 0.320000 0.030000 -1.855000
v 0.520000 0.030000 -1.855000
v 0.520000 0.150000 -1.855000
v 0.320000 0.150000 -1.855000
v 0.620000 0.030000 -1.885000
v 0.820000 0.030000 -1.885000
v 0.820000 0.150000 -1.885000
v 0.620000 0.150000 -1.885000
v 0.620000 0.030000 -1.855000
v 0.820000 0.030000 -1.855000
v 0.820000 0.150000 -1.855000
v 0.620000 0.150000 -1.855000
v -0.320000 -0.070000 -1.970000
v -0.200000 -0.070000 -1.970000
v -0.200000 0.010000 -1.970000
v -0.320000 0.010000 -1.970000
v -0.320000 -0.070000 -1.830000
v -0.200000 -0.070000 -1.830000
v -0.200000 0.010000 -1.830000
v -0.320000 0.010000 -1.830000
v 0.200000 -0.070000 -1.970000
v 0.320000 -0.070000 -1.970000
v 0.320000 0.010000 -1.970000
v 0.200000 0.010000 -1.970000
v 0.200000 -0.070000 -1.830000
v 0.320000 -0.070000 -1.830000
v 0.320000 0.010000 -1.830000
v 0.200000 0.010000 -1.830000
v -1.110000 -0.060000 1.450000
v -0.890000 -0.060000 1.450000
v -0.890000 0.054805 1.427164
v -1.110000 0.054805 1.427164
v -1.110000 0.054805 1.427164
v -0.890000 0.054805 1.427164
v -0.890000 0.152132 1.362132
v -1.110000 0.152132 1.362132
v -1.110000 0.152132 1.362132
v -0.890000 0.152132 1.362132
v -0.890000 0.217164 1.264805
v -1.110000 0.217164 1.264805
v -1.110000 0.217164 1.264805
v -0.890000 0.217164 1.264805
v -0.890000 0.240000 1.150000
v -1.110000 0.240000 1.150000
v -1.110000 0.240000 1.150000
v -0.890000 0.240000 1.150000
v -0.890000 0.217164 1.035195
v -1.110000 0.217164 1.035195
v -1.110000 0.217164 1.035195
v -0.890000 0.217164 1.035195
v -0.890000 0.152132 0.937868
v -1.110000 0.152132 0.937868
v -1.110000 0.152132 0.937868
v -0.890000 0.152132 0.937868
v -0.890000 0.054805 0.872836
v -1.110000 0.054805 0.872836
v -1.110000 0.054805 0.872836
v -0.890000 0.054805 0.872836
v -0.890000 -0.060000 0.850000
v -1.110000 -0.060000 0.850000
v -1.110000 -0.060000 0.850000
v -0.890000 -0.060000 0.850000
v -0.890000 -0.174805 0.872836
v -1.110000 -0.174805 0.872836
v -1.110000 -0.174805 0.872836
v -0.890000 -0.174805 0.872836
v -0.890000 -0.272132 0.937868
v -1.110000 -0.272132 0.937868
v -1.110000 -0.272132 0.937868
v -0.890000 -0.272132 0.937868
v -0.890000 -0.337164 1.035195
v -1.110000 -0.337164 1.035195
v -1.110000 -0.337164 1.035195
v -0.890000 -0.337164 1.035195
v -0.890000 -0.360000 1.150000
v -1.110000 -0.360000 1.150000
v -1.110000 -0.360000 1.150000
v -0.890000 -0.360000 1.150000
v -0.890000 -0.337164 1.264805
v -1.110000 -0.337164 1.264805
v -1.110000 -0.337164 1.264805
v -0.890000 -0.337164 1.264805
v -0.890000 -0.272132 1.362132
v -1.110000 -0.272132 1.362132
v -1.110000 -0.272132 1.362132
v -0.890000 -0.272132 1.362132
v -0.890000 -0.174805 1.427164
v -1.110000 -0.174805 1.427164
v -1.110000 -0.174805 1.427164
v -0.890000 -0.174805 1.427164
v -0.890000 -0.060000 1.450000
v -1.110000 -0.060000 1.450000
v -1.110000 -0.060000 1.150000
v -1.110000 -0.060000 1.405000
v -1.110000 0.037584 1.385589
v -1.110000 0.037584 1.385589
v -1.110000 0.120312 1.330312
v -1.110000 0.120312 1.330312
v -1.110000 0.175589 1.247584
v -1.110000 0.175589 1.247584
v -1.110000 0.195000 1.150000
v -1.110000 0.195000 1.150000
v -1.110000 0.175589 1.052416
v -1.110000 0.175589 1.052416
v -1.110000 0.120312 0.969688
v -1.110000 0.120312 0.969688
v -1.110000 0.037584 0.914411
v -1.110000 0.037584 0.914411
v -1.110000 -0.060000 0.895000
v -1.110000 -0.060000 0.895000
v -1.110000 -0.157584 0.914411
v -1.110000 -0.157584 0.914411
v -1.110000 -0.240312 0.969688
v -1.110000 -0.240312 0.969688
v -1.110000 -0.295589 1.052416
v -1.110000 -0.295589 1.052416
v -1.110000 -0.315000 1.150000
v -1.110000 -0.315000 1.150000
v -1.110000 -0.295589 1.247584
v -1.110000 -0.295589 1.247584
v -1.110000 -0.240312 1.330312
v -1.110000 -0.240312 1.330312
v -1.110000 -0.157584 1.385589
v -1.110000 -0.157584 1.385589
v -1.110000 -0.060000 1.405000
v 0.890000 -0.060000 1.450000
v 1.110000 -0.060000 1.450000
v 1.110000 0.054805 1.427164
v 0.890000 0.054805 1.427164
v 0.890000 0.054805 1.427164
v 1.110000 0.054805 1.427164
v 1.110000 0.152132 1.362132
v 0.890000 0.152132 1.362132
v 0.890000 0.152132 1.362132
v 1.110000 0.152132 1.362132
v 1.110000 0.217164 1.264805
v 0.890000 0.217164 1.264805
v 0.890000 0.217164 1.264805
v 1.110000 0.217164 1.264805
v 1.110000 0.240000 1.150000
v 0.890000 0.240000 1.150000
v 0.890000 0.240000 1.150000
v 1.110000 0.240000 1.150000
v 1.110000 0.217164 1.035195
v 0.890000 0.217164 1.035195
v 0.890000 0.217164 1.035195
v 1.110000 0.217164 1.035195
v 1.110000 0.152132 0.937868
v 0.890000 0.152132 0.937868
v 0.890000 0.152132 0.937868
v 1.110000 0.152132 0.937868
v 1.110000 0.054805 0.872836
v 0.890000 0.054805 0.872836
v 0.890000 0.054805 0.872836
v 1.110000 0.054805 0.872836
v 1.110000 -0.060000 0.850000
v 0.890000 -0.060000 0.850000
v 0.890000 -0.060000 0.850000
v 1.110000 -0.060000 0.850000
v 1.110000 -0.174805 0.872836
v 0.890000 -0.174805 0.872836
v 0.890000 -0.174805 0.872836
v 1.110000 -0.174805 0.872836
v 1.110000 -0.272132 0.937868
v 0.890000 -0.272132 0.937868
v 0.890000 -0.272132 0.937868
v 1.110000 -0.272132 0.937868
v 1.110000 -0.337164 1.035195
v 0.890000 -0.337164 1.035195
v 0.890000 -0.337164 1.035195
v 1.110000 -0.337164 1.035195
v 1.110000 -0.360000 1.150000
v 0.890000 -0.360000 1.150000
v 0.890000 -0.360000 1.150000
v 1.110000 -0.360000 1.150000
v 1.110000 -0.337164 1.264805
v 0.890000 -0.337164 1.264805
v 0.890000 -0.337164 1.264805
v 1.110000 -0.337164 1.264805
v 1.110000 -0.272132 1.362132
v 0.890000 -0.272132 1.362132
v 0.890000 -0.272132 1.362132
v 1.110000 -0.272132 1.362132
v 1.110000 -0.174805 1.427164
v 0.890000 -0.174805 1.427164
v 0.890000 -0.174805 1.427164
v 1.110000 -0.174805 1.427164
v 1.110000 -0.060000 1.450000
v 0.890000 -0.060000 1.450000
v 1.110000 -0.060000 1.150000
v 1.110000 -0.060000 1.405000
v 1.110000 0.037584 1.385589
v 1.110000 0.037584 1.385589
v 1.110000 0.120312 1.330312
v 1.110000 0.120312 1.330312
v 1.110000 0.175589 1.247584
v 1.110000 0.175589 1.247584
v 1.110000 0.195000 1.150000
v 1.110000 0.195000 1.150000
v 1.110000 0.175589 1.052416
v 1.110000 0.175589 1.052416
v 1.110000 0.120312 0.969688
v 1.110000 0.120312 0.969688
v 1.110000 0.037584 0.914411
v 1.110000 0.037584 0.914411
v 1.110000 -0.060000 0.895000
v 1.110000 -0.060000 0.895000
v 1.110000 -0.157584 0.914411
v 1.110000 -0.157584 0.914411
v 1.110000 -0.240312 0.969688
v 1.110000 -0.240312 0.969688
v 1.110000 -0.295589 1.052416
v 1.110000 -0.295589 1.052416
v 1.110000 -0.315000 1.150000
v 1.110000 -0.315000 1.150000
v 1.110000 -0.295589 1.247584
v 1.110000 -0.295589 1.247584
v 1.110000 -0.240312 1.330312
v 1.110000 -0.240312 1.330312
v 1.110000 -0.157584 1.385589
v 1.110000 -0.157584 1.385589
v 1.110000 -0.060000 1.405000
v -1.170000 -0.040000 -0.710000
v -0.910000 -0.040000 -0.710000
v -0.910000 0.090112 -0.735881
v -1.170000 0.090112 -0.735881
v -1.170000 0.090112 -0.735881
v -0.910000 0.090112 -0.735881
v -0.910000 0.200416 -0.809584
v -1.170000 0.200416 -0.809584
v -1.170000 0.200416 -0.809584
v -0.910000 0.200416 -0.809584
v -0.910000 0.274119 -0.919888
v -1.170000 0.274119 -0.919888
v -1.170000 0.274119 -0.919888
v -0.910000 0.274119 -0.919888
v -0.910000 0.300000 -1.050000
v -1.170000 0.300000 -1.050000
v -1.170000 0.300000 -1.050000
v -0.910000 0.300000 -1.050000
v -0.910000 0.274119 -1.180112
v -1.170000 0.274119 -1.180112
v -1.170000 0.274119 -1.180112
v -0.910000 0.274119 -1.180112
v -0.910000 0.200416 -1.290416
v -1.170000 0.200416 -1.290416
v -1.170000 0.200416 -1.290416
v -0.910000 0.200416 -1.290416
v -0.910000 0.090112 -1.364119
v -1.170000 0.090112 -1.364119
v -1.170000 0.090112 -1.364119
v -0.910000 0.090112 -1.364119
v -0.910000 -0.040000 -1.390000
v -1.170000 -0.040000 -1.390000
v -1.170000 -0.040000 -1.390000
v -0.910000 -0.040000 -1.390000
v -0.910000 -0.170112 -1.364119
v -1.170000 -0.170112 -1.364119
v -1.170000 -0.170112 -1.364119
v -0.910000 -0.170112 -1.364119
v -0.910000 -0.280416 -1.290416
v -1.170000 -0.280416 -1.290416
v -1.170000 -0.280416 -1.290416
v -0.910000 -0.280416 -1.290416
v -0.910000 -0.354119 -1.180112
v -1.170000 -0.354119 -1.180112
v -1.170000 -0.354119 -1.180112
v -0.910000 -0.354119 -1.180112
v -0.910000 -0.380000 -1.050000
v -1.170000 -0.380000 -1.050000
v -1.170000 -0.380000 -1.050000
v -0.910000 -0.380000 -1.050000
v -0.910000 -0.354119 -0.919888
v -1.170000 -0.354119 -0.919888
v -1.170000 -0.354119 -0.919888
v -0.910000 -0.354119 -0.919888
v -0.910000 -0.280416 -0.809584
v -1.170000 -0.280416 -0.809584
v -1.170000 -0.280416 -0.809584
v -0.910000 -0.280416 -0.809584
v -0.910000 -0.170112 -0.735881
v -1.170000 -0.170112 -0.735881
v -1.170000 -0.170112 -0.735881
v -0.910000 -0.170112 -0.735881
v -0.910000 -0.040000 -0.710000
v -1.170000 -0.040000 -0.710000
v -1.170000 -0.040000 -1.050000
v -1.170000 -0.040000 -0.761000
v -1.170000 0.070596 -0.782999
v -1.170000 0.070596 -0.782999
v -1.170000 0.164354 -0.845646
v -1.170000 0.164354 -0.845646
v -1.170000 0.227001 -0.939404
v -1.170000 0.227001 -0.939404
v -1.170000 0.249000 -1.050000
v -1.170000 0.249000 -1.050000
v -1.170000 0.227001 -1.160596
v -1.170000 0.227001 -1.160596
v -1.170000 0.164354 -1.254354
v -1.170000 0.164354 -1.254354
v -1.170000 0.070596 -1.317001
v -1.170000 0.070596 -1.317001
v -1.170000 -0.040000 -1.339000
v -1.170000 -0.040000 -1.339000
v -1.170000 -0.150596 -1.317001
v -1.170000 -0.150596 -1.317001
v -1.170000 -0.244354 -1.254354
v -1.170000 -0.244354 -1.254354
v -1.170000 -0.307001 -1.160596
v -1.170000 -0.307001 -1.160596
v -1.170000 -0.329000 -1.050000
v -1.170000 -0.329000 -1.050000
v -1.170000 -0.307001 -0.939404
v -1.170000 -0.307001 -0.939404
v -1.170000 -0.244354 -0.845646
v -1.170000 -0.244354 -0.845646
v -1.170000 -0.150596 -0.782999
v -1.170000 -0.150596 -0.782999
v -1.170000 -0.040000 -0.761000
v 0.910000 -0.040000 -0.710000
v 1.170000 -0.040000 -0.710000
v 1.170000 0.090112 -0.735881
v 0.910000 0.090112 -0.735881
v 0.910000 0.090112 -0.735881
v 1.170000 0.090112 -0.735881
v 1.170000 0.200416 -0.809584
v 0.910000 0.200416 -0.809584
v 0.910000 0.200416 -0.809584
v 1.170000 0.200416 -0.809584
v 1.170000 0.274119 -0.919888
v 0.910000 0.274119 -0.919888
v 0.910000 0.274119 -0.919888
v 1.170000 0.274119 -0.919888
v 1.170000 0.300000 -1.050000
v 0.910000 0.300000 -1.050000
v 0.910000 0.300000 -1.050000
v 1.170000 0.300000 -1.050000
v 1.170000 0.274119 -1.180112
v 0.910000 0.274119 -1.180112
v 0.910000 0.274119 -1.180112
v 1.170000 0.274119 -1.180112
v 1.170000 0.200416 -1.290416
v 0.910000 0.200416 -1.290416
v 0.910000 0.200416 -1.290416
v 1.170000 0.200416 -1.290416
v 1.170000 0.090112 -1.364119
v 0.910000 0.090112 -1.364119
v 0.910000 0.090112 -1.364119
v 1.170000 0.090112 -1.364119
v 1.170000 -0.040000 -1.390000
v 0.910000 -0.040000 -1.390000
v 0.910000 -0.040000 -1.390000
v 1.170000 -0.040000 -1.390000
v 1.170000 -0.170112 -1.364119
v 0.910000 -0.170112 -1.364119
v 0.910000 -0.170112 -1.364119
v 1.170000 -0.170112 -1.364119
v 1.170000 -0.280416 -1.290416
v 0.910000 -0.280416 -1.290416
v 0.910000 -0.280416 -1.290416
v 1.170000 -0.280416 -1.290416
v 1.170000 -0.354119 -1.180112
v 0.910000 -0.354119 -1.180112
v 0.910000 -0.354119 -1.180112
v 1.170000 -0.354119 -1.180112
v 1.170000 -0.380000 -1.050000
v 0.910000 -0.380000 -1.050000
v 0.910000 -0.380000 -1.050000
v 1.170000 -0.380000 -1.050000
v 1.170000 -0.354119 -0.919888
v 0.910000 -0.354119 -0.919888
v 0.910000 -0.354119 -0.919888
v 1.170000 -0.354119 -0.919888
v 1.170000 -0.280416 -0.809584
v 0.910000 -0.280416 -0.809584
v 0.910000 -0.280416 -0.809584
v 1.170000 -0.280416 -0.809584
v 1.170000 -0.170112 -0.735881
v 0.910000 -0.170112 -0.735881
v 0.910000 -0.170112 -0.735881
v 1.170000 -0.170112 -0.735881
v 1.170000 -0.040000 -0.710000
v 0.910000 -0.040000 -0.710000
v 1.170000 -0.040000 -1.050000
v 1.170000 -0.040000 -0.761000
v 1.170000 0.070596 -0.782999
v 1.170000 0.070596 -0.782999
v 1.170000 0.164354 -0.845646
v 1.170000 0.164354 -0.845646
v 1.170000 0.227001 -0.939404
v 1.170000 0.227001 -0.939404
v 1.170000 0.249000 -1.050000
v 1.170000 0.249000 -1.050000
v 1.170000 0.227001 -1.160596
v 1.170000 0.227001 -1.160596
v 1.170000 0.164354 -1.254354
v 1.170000 0.164354 -1.254354
v 1.170000 0.070596 -1.317001
v 1.170000 0.070596 -1.317001
v 1.170000 -0.040000 -1.339000
v 1.170000 -0.040000 -1.339000
v 1.170000 -0.150596 -1.317001
v 1.170000 -0.150596 -1.317001
v 1.170000 -0.244354 -1.254354
v 1.170000 -0.244354 -1.254354
v 1.170000 -0.307001 -1.160596
v 1.170000 -0.307001 -1.160596
v 1.170000 -0.329000 -1.050000
v 1.170000 -0.329000 -1.050000
v 1.170000 -0.307001 -0.939404
v 1.170000 -0.307001 -0.939404
v 1.170000 -0.244354 -0.845646
v 1.170000 -0.244354 -0.845646
v 1.170000 -0.150596 -0.782999
v 1.170000 -0.150596 -0.782999
v 1.170000 -0.040000 -0.761000

vn 0.000000 0.989692 0.143212
vn 0.074544 0.987141 0.141407
vn -0.074544 0.987141 0.141407
vn 0.000000 0.989949 0.141421
vn -0.104139 0.959649 0.261208
vn 0.178686 0.956970 0.228649
vn 0.558625 0.821655 0.113228
vn 0.457897 0.888858 0.016161
vn -0.136873 -0.987314 -0.080482
vn -0.558625 0.821655 0.113228
vn -0.457897 0.888858 0.016161
vn -0.365102 -0.876245 -0.314475
vn -0.067484 0.982126 0.175713
vn 0.053934 0.944655 0.323602
vn -0.208908 0.950168 -0.231383
vn 0.255884 0.957149 -0.135609
vn -0.363070 -0.929814 -0.060217
vn -0.243901 -0.969777 -0.006659
vn -0.288787 -0.955545 0.059456
vn 0.127537 -0.990962 -0.041577
vn 0.243901 -0.969777 -0.006659
vn 0.288787 -0.955545 0.059456
vn 0.000000 1.000000 0.000000
vn -0.580826 0.700586 -0.414513
vn 0.314429 0.876506 -0.364515
vn -0.017648 -0.058393 -0.998138
vn 0.034691 -0.114787 -0.992784
vn 0.000000 0.000000 -1.000000
vn 0.000000 0.000000 -1.000000
vn -0.980319 -0.154787 -0.122540
vn 0.885639 -0.139838 -0.442819
vn 0.980319 0.154787 -0.122540
vn -0.885639 0.139838 -0.442819
vn -0.885639 -0.139838 0.442819
vn 0.980319 -0.154787 0.122540
vn 0.885639 0.139838 0.442819
vn -0.980319 0.154787 0.122540
vn -0.980319 -0.154787 -0.122540
vn 0.885639 -0.139838 -0.442819
vn 0.980319 0.154787 -0.122540
vn -0.885639 0.139838 -0.442819
vn -0.885639 -0.139838 0.442819
vn 0.980319 -0.154787 0.122540
vn 0.885639 0.139838 0.442819
vn -0.980319 0.154787 0.122540
vn -0.017740 -0.997896 -0.062368
vn 0.017244 -0.969998 -0.242500
vn 0.017740 0.997896 -0.062368
vn -0.017244 0.969998 -0.242500
vn -0.017244 -0.969998 0.242500
vn 0.017740 -0.997896 0.062368
vn 0.017244 0.969998 0.242500
vn -0.017740 0.997896 0.062368
vn -0.985562 -0.164260 -0.041065
vn 0.973329 -0.162221 -0.162221
vn 0.985562 0.164260 -0.041065
vn -0.973329 0.162221 -0.162221
vn -0.973329 -0.162221 0.162221
vn 0.985562 -0.164260 0.041065
vn 0.973329 0.162221 0.162221
vn -0.985562 0.164260 0.041065
vn -0.985562 -0.164260 -0.041065
vn 0.973329 -0.162221 -0.162221
vn 0.985562 0.164260 -0.041065
vn -0.973329 0.162221 -0.162221
vn -0.973329 -0.162221 0.162221
vn 0.985562 -0.164260 0.041065
vn 0.973329 0.162221 0.162221
vn -0.985562 0.164260 0.041065
vn -0.019459 -0.997270 -0.071234
vn 0.018758 -0.961355 -0.274673
vn 0.019459 0.997270 -0.071234
vn -0.018758 0.961355 -0.274673
vn -0.018758 -0.961355 0.274673
vn 0.019459 -0.997270 0.071234
vn 0.018758 0.961355 0.274673
vn -0.019459 0.997270 0.071234
vn -0.599987 -0.799983 -0.006486
vn 0.599798 -0.799731 -0.025937
vn 0.599987 0.799983 -0.006486
vn -0.599798 0.799731 -0.025937
vn -0.599798 -0.799731 0.025937
vn 0.599987 -0.799983 0.006486
vn 0.599798 0.799731 0.025937
vn -0.599987 0.799983 0.006486
vn -0.599987 -0.799983 -0.006486
vn 0.599798 -0.799731 -0.025937
vn 0.599987 0.799983 -0.006486
vn -0.599798 0.799731 -0.025937
vn -0.599798 -0.799731 0.025937
vn 0.599987 -0.799983 0.006486
vn 0.599798 0.799731 0.025937
vn -0.599987 0.799983 0.006486
vn -0.030571 -0.988474 -0.148271
vn 0.026511 -0.857192 -0.514315
vn 0.030571 0.988474 -0.148271
vn -0.026511 0.857192 -0.514315
vn -0.026511 -0.857192 0.514315
vn 0.030571 -0.988474 0.148271
vn 0.026511 0.857192 0.514315
vn -0.030571 0.988474 0.148271
vn -0.259161 -0.431934 -0.863868
vn 0.074216 -0.123693 -0.989541
vn 0.259161 0.431934 -0.863868
vn -0.074216 0.123693 -0.989541
vn -0.074216 -0.123693 0.989541
vn 0.259161 -0.431934 0.863868
vn 0.074216 0.123693 0.989541
vn -0.259161 0.431934 0.863868
vn -0.259161 -0.431934 -0.863868
vn 0.074216 -0.123693 -0.989541
vn 0.259161 0.431934 -0.863868
vn -0.074216 0.123693 -0.989541
vn -0.074216 -0.123693 0.989541
vn 0.259161 -0.431934 0.863868
vn 0.074216 0.123693 0.989541
vn -0.259161 0.431934 0.863868
vn -0.259161 -0.431934 -0.863868
vn 0.074216 -0.123693 -0.989541
vn 0.259161 0.431934 -0.863868
vn -0.074216 0.123693 -0.989541
vn -0.074216 -0.123693 0.989541
vn 0.259161 -0.431934 0.863868
vn 0.074216 0.123693 0.989541
vn -0.259161 0.431934 0.863868
vn -0.259161 -0.431934 -0.863868
vn 0.074216 -0.123693 -0.989541
vn 0.259161 0.431934 -0.863868
vn -0.074216 0.123693 -0.989541
vn -0.074216 -0.123693 0.989541
vn 0.259161 -0.431934 0.863868
vn 0.074216 0.123693 0.989541
vn -0.259161 0.431934 0.863868
vn -0.539660 -0.809491 -0.231283
vn 0.401974 -0.602961 -0.689098
vn 0.539660 0.809491 -0.231283
vn -0.401974 0.602961 -0.689098
vn -0.401974 -0.602961 0.689098
vn 0.539660 -0.809491 0.231283
vn 0.401974 0.602961 0.689098
vn -0.539660 0.809491 0.231283
vn -0.539660 -0.809491 -0.231283
vn 0.401974 -0.602961 -0.689098
vn 0.539660 0.809491 -0.231283
vn -0.401974 0.602961 -0.689098
vn -0.401974 -0.602961 0.689098
vn 0.539660 -0.809491 0.231283
vn 0.401974 0.602961 0.689098
vn -0.539660 0.809491 0.231283
vn 0.000000 0.195090 0.980785
vn 0.000000 0.195090 0.980785
vn 0.000000 0.195090 0.980785
vn 0.000000 0.195090 0.980785
vn 0.000000 0.555570 0.831470
vn 0.000000 0.555570 0.831470
vn 0.000000 0.555570 0.831470
vn 0.000000 0.555570 0.831470
vn 0.000000 0.831470 0.555570
vn 0.000000 0.831470 0.555570
vn 0.000000 0.831470 0.555570
vn 0.000000 0.831470 0.555570
vn 0.000000 0.980785 0.195090
vn 0.000000 0.980785 0.195090
vn 0.000000 0.980785 0.195090
vn 0.000000 0.980785 0.195090
vn 0.000000 0.980785 -0.195090
vn 0.000000 0.980785 -0.195090
vn 0.000000 0.980785 -0.195090
vn 0.000000 0.980785 -0.195090
vn 0.000000 0.831470 -0.555570
vn 0.000000 0.831470 -0.555570
vn 0.000000 0.831470 -0.555570
vn 0.000000 0.831470 -0.555570
vn 0.000000 0.555570 -0.831470
vn 0.000000 0.555570 -0.831470
vn 0.000000 0.555570 -0.831470
vn 0.000000 0.555570 -0.831470
vn 0.000000 0.195090 -0.980785
vn 0.000000 0.195090 -0.980785
vn 0.000000 0.195090 -0.980785
vn 0.000000 0.195090 -0.980785
vn 0.000000 -0.195090 -0.980785
vn 0.000000 -0.195090 -0.980785
vn 0.000000 -0.195090 -0.980785
vn 0.000000 -0.195090 -0.980785
vn 0.000000 -0.555570 -0.831470
vn 0.000000 -0.555570 -0.831470
vn 0.000000 -0.555570 -0.831470
vn 0.000000 -0.555570 -0.831470
vn 0.000000 -0.831470 -0.555570
vn 0.000000 -0.831470 -0.555570
vn 0.000000 -0.831470 -0.555570
vn 0.000000 -0.831470 -0.555570
vn 0.000000 -0.980785 -0.195090
vn 0.000000 -0.980785 -0.195090
vn 0.000000 -0.980785 -0.195090
vn 0.000000 -0.980785 -0.195090
vn 0.000000 -0.980785 0.195090
vn 0.000000 -0.980785 0.195090
vn 0.000000 -0.980785 0.195090
vn 0.000000 -0.980785 0.195090
vn 0.000000 -0.831470 0.555570
vn 0.000000 -0.831470 0.555570
vn 0.000000 -0.831470 0.555570
vn 0.000000 -0.831470 0.555570
vn 0.000000 -0.555570 0.831470
vn 0.000000 -0.555570 0.831470
vn 0.000000 -0.555570 0.831470
vn 0.000000 -0.555570 0.831470
vn 0.000000 -0.195090 0.980785
vn 0.000000 -0.195090 0.980785
vn 0.000000 -0.195090 0.980785
vn 0.000000 -0.195090 0.980785
vn 1.000000 0.000000 0.000000
vn 1.000000 0.000000 0.000000
vn 1.000000 0.000000 0.000000
vn 1.000000 0.000000 0.000000
vn 1.000000 0.000000 0.000000
vn 1.000000 0.000000 0.000000
vn 1.000000 0.000000 0.000000
vn 1.000000 0.000000 0.000000
vn 1.000000 0.000000 0.000000
vn 1.000000 0.000000 0.000000
vn 1.000000 0.000000 0.000000
vn 1.000000 0.000000 0.000000
vn 1.000000 0.000000 0.000000
vn 1.000000 0.000000 0.000000
vn 1.000000 0.000000 0.000000
vn 1.000000 0.000000 0.000000
vn 1.000000 0.000000 0.000000
vn 1.000000 0.000000 0.000000
vn 1.000000 0.000000 0.000000
vn 1.000000 0.000000 0.000000
vn 1.000000 0.000000 0.000000
vn 1.000000 0.000000 0.000000
vn 1.000000 0.000000 0.000000
vn 1.000000 0.000000 0.000000
vn 1.000000 0.000000 0.000000
vn 1.000000 0.000000 0.000000
vn 1.000000 0.000000 0.000000
vn 1.000000 0.000000 0.000000
vn 1.000000 0.000000 0.000000
vn 1.000000 0.000000 0.000000
vn 1.000000 0.000000 0.000000
vn 1.000000 0.000000 0.000000
vn 1.000000 0.000000 0.000000
vn 0.000000 0.195090 0.980785
vn 0.000000 0.195090 0.980785
vn 0.000000 0.195090 0.980785
vn 0.000000 0.195090 0.980785
vn 0.000000 0.555570 0.831470
vn 0.000000 0.555570 0.831470
vn 0.000000 0.555570 0.831470
vn 0.000000 0.555570 0.831470
vn 0.000000 0.831470 0.555570
vn 0.000000 0.831470 0.555570
vn 0.000000 0.831470 0.555570
vn 0.000000 0.831470 0.555570
vn 0.000000 0.980785 0.195090
vn 0.000000 0.980785 0.195090
vn 0.000000 0.980785 0.195090
vn 0.000000 0.980785 0.195090
vn 0.000000 0.980785 -0.195090
vn 0.000000 0.980785 -0.195090
vn 0.000000 0.980785 -0.195090
vn 0.000000 0.980785 -0.195090
vn 0.000000 0.831470 -0.555570
vn 0.000000 0.831470 -0.555570
vn 0.000000 0.831470 -0.555570
vn 0.000000 0.831470 -0.555570
vn 0.000000 0.555570 -0.831470
vn 0.000000 0.555570 -0.831470
vn 0.000000 0.555570 -0.831470
vn 0.000000 0.555570 -0.831470
vn 0.000000 0.195090 -0.980785
vn 0.000000 0.195090 -0.980785
vn 0.000000 0.195090 -0.980785
vn 0.000000 0.195090 -0.980785
vn 0.000000 -0.195090 -0.980785
vn 0.000000 -0.195090 -0.980785
vn 0.000000 -0.195090 -0.980785
vn 0.000000 -0.195090 -0.980785
vn 0.000000 -0.555570 -0.831470
vn 0.000000 -0.555570 -0.831470
vn 0.000000 -0.555570 -0.831470
vn 0.000000 -0.555570 -0.831470
vn 0.000000 -0.831470 -0.555570
vn 0.000000 -0.831470 -0.555570
vn 0.000000 -0.831470 -0.555570
vn 0.000000 -0.831470 -0.555570
vn 0.000000 -0.980785 -0.195090
vn 0.000000 -0.980785 -0.195090
vn 0.000000 -0.980785 -0.195090
vn 0.000000 -0.980785 -0.195090
vn 0.000000 -0.980785 0.195090
vn 0.000000 -0.980785 0.195090
vn 0.000000 -0.980785 0.195090
vn 0.000000 -0.980785 0.195090
vn 0.000000 -0.831470 0.555570
vn 0.000000 -0.831470 0.555570
vn 0.000000 -0.831470 0.555570
vn 0.000000 -0.831470 0.555570
vn 0.000000 -0.555570 0.831470
vn 0.000000 -0.555570 0.831470
vn 0.000000 -0.555570 0.831470
vn 0.000000 -0.555570 0.831470
vn 0.000000 -0.195090 0.980785
vn 0.000000 -0.195090 0.980785
vn 0.000000 -0.195090 0.980785
vn 0.000000 -0.195090 0.980785
vn -1.000000 0.000000 0.000000
vn -1.000000 0.000000 0.000000
vn -1.000000 0.000000 0.000000
vn -1.000000 0.000000 0.000000
vn -1.000000 0.000000 0.000000
vn -1.000000 0.000000 0.000000
vn -1.000000 0.000000 0.000000
vn -1.000000 0.000000 0.000000
vn -1.000000 0.000000 0.000000
vn -1.000000 0.000000 0.000000
vn -1.000000 0.000000 0.000000
vn -1.000000 0.000000 0.000000
vn -1.000000 0.000000 0.000000
vn -1.000000 0.000000 0.000000
vn -1.000000 0.000000 0.000000
vn -1.000000 0.000000 0.000000
vn -1.000000 0.000000 0.000000
vn -1.000000 0.000000 0.000000
vn -1.000000 0.000000 0.000000
vn -1.000000 0.000000 0.000000
vn -1.000000 0.000000 0.000000
vn -1.000000 0.000000 0.000000
vn -1.000000 0.000000 0.000000
vn -1.000000 0.000000 0.000000
vn -1.000000 0.000000 0.000000
vn -1.000000 0.000000 0.000000
vn -1.000000 0.000000 0.000000
vn -1.000000 0.000000 0.000000
vn -1.000000 0.000000 0.000000
vn -1.000000 0.000000 0.000000
vn -1.000000 0.000000 0.000000
vn -1.000000 0.000000 0.000000
vn -1.000000 0.000000 0.000000
vn 0.000000 0.195090 0.980785
vn 0.000000 0.195090 0.980785
vn 0.000000 0.195090 0.980785
vn 0.000000 0.195090 0.980785
vn 0.000000 0.555570 0.831470
vn 0.000000 0.555570 0.831470
vn 0.000000 0.555570 0.831470
vn 0.000000 0.555570 0.831470
vn 0.000000 0.831470 0.555570
vn 0.000000 0.831470 0.555570
vn 0.000000 0.831470 0.555570
vn 0.000000 0.831470 0.555570
vn 0.000000 0.980785 0.195090
vn 0.000000 0.980785 0.195090
vn 0.000000 0.980785 0.195090
vn 0.000000 0.980785 0.195090
vn 0.000000 0.980785 -0.195090
vn 0.000000 0.980785 -0.195090
vn 0.000000 0.980785 -0.195090
vn 0.000000 0.980785 -0.195090
vn 0.000000 0.831470 -0.555570
vn 0.000000 0.831470 -0.555570
vn 0.000000 0.831470 -0.555570
vn 0.000000 0.831470 -0.555570
vn 0.000000 0.555570 -0.831470
vn 0.000000 0.555570 -0.831470
vn 0.000000 0.555570 -0.831470
vn 0.000000 0.555570 -0.831470
vn 0.000000 0.195090 -0.980785
vn 0.000000 0.195090 -0.980785
vn 0.000000 0.195090 -0.980785
vn 0.000000 0.195090 -0.980785
vn 0.000000 -0.195090 -0.980785
vn 0.000000 -0.195090 -0.980785
vn 0.000000 -0.195090 -0.980785
vn 0.000000 -0.195090 -0.980785
vn 0.000000 -0.555570 -0.831470
vn 0.000000 -0.555570 -0.831470
vn 0.000000 -0.555570 -0.831470
vn 0.000000 -0.555570 -0.831470
vn 0.000000 -0.831470 -0.555570
vn 0.000000 -0.831470 -0.555570
vn 0.000000 -0.831470 -0.555570
vn 0.000000 -0.831470 -0.555570
vn 0.000000 -0.980785 -0.195090
vn 0.000000 -0.980785 -0.195090
vn 0.000000 -0.980785 -0.195090
vn 0.000000 -0.980785 -0.195090
vn 0.000000 -0.980785 0.195090
vn 0.000000 -0.980785 0.195090
vn 0.000000 -0.980785 0.195090
vn 0.000000 -0.980785 0.195090
vn 0.000000 -0.831470 0.555570
vn 0.000000 -0.831470 0.555570
vn 0.000000 -0.831470 0.555570
vn 0.000000 -0.831470 0.555570
vn 0.000000 -0.555570 0.831470
vn 0.000000 -0.555570 0.831470
vn 0.000000 -0.555570 0.831470
vn 0.000000 -0.555570 0.831470
vn 0.000000 -0.195090 0.980785
vn 0.000000 -0.195090 0.980785
vn 0.000000 -0.195090 0.980785
vn 0.000000 -0.195090 0.980785
vn 1.000000 0.000000 0.000000
vn 1.000000 0.000000 0.000000
vn 1.000000 0.000000 0.000000
vn 1.000000 0.000000 0.000000
vn 1.000000 0.000000 0.000000
vn 1.000000 0.000000 0.000000
vn 1.000000 0.000000 0.000000
vn 1.000000 0.000000 0.000000
vn 1.000000 0.000000 0.000000
vn 1.000000 0.000000 0.000000
vn 1.000000 0.000000 0.000000
vn 1.000000 0.000000 0.000000
vn 1.000000 0.000000 0.000000
vn 1.000000 0.000000 0.000000
vn 1.000000 0.000000 0.000000
vn 1.000000 0.000000 0.000000
vn 1.000000 0.000000 0.000000
vn 1.000000 0.000000 0.000000
vn 1.000000 0.000000 0.000000
vn 1.000000 0.000000 0.000000
vn 1.000000 0.000000 0.000000
vn 1.000000 0.000000 0.000000
vn 1.000000 0.000000 0.000000
vn 1.000000 0.000000 0.000000
vn 1.000000 0.000000 0.000000
vn 1.000000 0.000000 0.000000
vn 1.000000 0.000000 0.000000
vn 1.000000 0.000000 0.000000
vn 1.000000 0.000000 0.000000
vn 1.000000 0.000000 0.000000
vn 1.000000 0.000000 0.000000
vn 1.000000 0.000000 0.000000
vn 1.000000 0.000000 0.000000
vn 0.000000 0.195090 0.980785
vn 0.000000 0.195090 0.980785
vn 0.000000 0.195090 0.980785
vn 0.000000 0.195090 0.980785
vn 0.000000 0.555570 0.831470
vn 0.000000 0.555570 0.831470
vn 0.000000 0.555570 0.831470
vn 0.000000 0.555570 0.831470
vn 0.000000 0.831470 0.555570
vn 0.000000 0.831470 0.555570
vn 0.000000 0.831470 0.555570
vn 0.000000 0.831470 0.555570
vn 0.000000 0.980785 0.195090
vn 0.000000 0.980785 0.195090
vn 0.000000 0.980785 0.195090
vn 0.000000 0.980785 0.195090
vn 0.000000 0.980785 -0.195090
vn 0.000000 0.980785 -0.195090
vn 0.000000 0.980785 -0.195090
vn 0.000000 0.980785 -0.195090
vn 0.000000 0.831470 -0.555570
vn 0.000000 0.831470 -0.555570
vn 0.000000 0.831470 -0.555570
vn 0.000000 0.831470 -0.555570
vn 0.000000 0.555570 -0.831470
vn 0.000000 0.555570 -0.831470
vn 0.000000 0.555570 -0.831470
vn 0.000000 0.555570 -0.831470
vn 0.000000 0.195090 -0.980785
vn 0.000000 0.195090 -0.980785
vn 0.000000 0.195090 -0.980785
vn 0.000000 0.195090 -0.980785
vn 0.000000 -0.195090 -0.980785
vn 0.000000 -0.195090 -0.980785
vn 0.000000 -0.195090 -0.980785
vn 0.000000 -0.195090 -0.980785
vn 0.000000 -0.555570 -0.831470
vn 0.000000 -0.555570 -0.831470
vn 0.000000 -0.555570 -0.831470
vn 0.000000 -0.555570 -0.831470
vn 0.000000 -0.831470 -0.555570
vn 0.000000 -0.831470 -0.555570
vn 0.000000 -0.831470 -0.555570
vn 0.000000 -0.831470 -0.555570
vn 0.000000 -0.980785 -0.195090
vn 0.000000 -0.980785 -0.195090
vn 0.000000 -0.980785 -0.195090
vn 0.000000 -0.980785 -0.195090
vn 0.000000 -0.980785 0.195090
vn 0.000000 -0.980785 0.195090
vn 0.000000 -0.980785 0.195090
vn 0.000000 -0.980785 0.195090
vn 0.000000 -0.831470 0.555570
vn 0.000000 -0.831470 0.555570
vn 0.000000 -0.831470 0.555570
vn 0.000000 -0.831470 0.555570
vn 0.000000 -0.555570 0.831470
vn 0.000000 -0.555570 0.831470
vn 0.000000 -0.555570 0.831470
vn 0.000000 -0.555570 0.831470
vn 0.000000 -0.195090 0.980785
vn 0.000000 -0.195090 0.980785
vn 0.000000 -0.195090 0.980785
vn 0.000000 -0.195090 0.980785
vn -1.000000 0.000000 0.000000
vn -1.000000 0.000000 0.000000
vn -1.000000 0.000000 0.000000
vn -1.000000 0.000000 0.000000
vn -1.000000 0.000000 0.000000
vn -1.000000 0.000000 0.000000
vn -1.000000 0.000000 0.000000
vn -1.000000 0.000000 0.000000
vn -1.000000 0.000000 0.000000
vn -1.000000 0.000000 0.000000
vn -1.000000 0.000000 0.000000
vn -1.000000 0.000000 0.000000
vn -1.000000 0.000000 0.000000
vn -1.000000 0.000000 0.000000
vn -1.000000 0.000000 0.000000
vn -1.000000 0.000000 0.000000
vn -1.000000 0.000000 0.000000
vn -1.000000 0.000000 0.000000
vn -1.000000 0.000000 0.000000
vn -1.000000 0.000000 0.000000
vn -1.000000 0.000000 0.000000
vn -1.000000 0.000000 0.000000
vn -1.000000 0.000000 0.000000
vn -1.000000 0.000000 0.000000
vn -1.000000 0.000000 0.000000
vn -1.000000 0.000000 0.000000
vn -1.000000 0.000000 0.000000
vn -1.000000 0.000000 0.000000
vn -1.000000 0.000000 0.000000
vn -1.000000 0.000000 0.000000
vn -1.000000 0.000000 0.000000
vn -1.000000 0.000000 0.000000
vn -1.000000 0.000000 0.000000

g paint
f 1//1 4//4 5//5
f 1//1 5//5 2//2
f 1//1 6//6 4//4
f 1//1 3//3 6//6
f 2//2 5//5 7//7
f 7//7 5//5 8//8
f 5//5 9//9 8//8
f 3//3 10//10 6//6
f 10//10 11//11 6//6
f 6//6 11//11 12//12
f 13//13 14//14 16//16
f 13//13 16//16 15//15
f 9//9 17//17 24//24
f 9//9 24//24 5//5
f 6//6 25//25 20//20
f 6//6 20//20 12//12
f 24//24 17//17 18//18
f 25//25 21//21 20//20
f 18//18 19//19 26//26
f 21//21 27//27 22//22
f 34//34 35//35 36//36
f 34//34 36//36 37//37
f 31//31 30//30 33//33
f 31//31 33//33 32//32
f 30//30 34//34 37//37
f 30//30 37//37 33//33
f 35//35 31//31 32//32
f 35//35 32//32 36//36
f 37//37 36//36 32//32
f 37//37 32//32 33//33
f 30//30 31//31 35//35
f 30//30 35//35 34//34
f 42//42 43//43 44//44
f 42//42 44//44 45//45
f 39//39 38//38 41//41
f 39//39 41//41 40//40
f 38//38 42//42 45//45
f 38//38 45//45 41//41
f 43//43 39//39 40//40
f 43//43 40//40 44//44
f 45//45 44//44 40//40
f 45//45 40//40 41//41
f 38//38 39//39 43//43
f 38//38 43//43 42//42
f 50//50 51//51 52//52
f 50//50 52//52 53//53
f 47//47 46//46 49//49
f 47//47 49//49 48//48
f 46//46 50//50 53//53
f 46//46 53//53 49//49
f 51//51 47//47 48//48
f 51//51 48//48 52//52
f 53//53 52//52 48//48
f 53//53 48//48 49//49
f 46//46 47//47 51//51
f 46//46 51//51 50//50
f 58//58 59//59 60//60
f 58//58 60//60 61//61
f 55//55 54//54 57//57
f 55//55 57//57 56//56
f 54//54 58//58 61//61
f 54//54 61//61 57//57
f 59//59 55//55 56//56
f 59//59 56//56 60//60
f 61//61 60//60 56//56
f 61//61 56//56 57//57
f 54//54 55//55 59//59
f 54//54 59//59 58//58
f 66//66 67//67 68//68
f 66//66 68//68 69//69
f 63//63 62//62 65//65
f 63//63 65//65 64//64
f 62//62 66//66 69//69
f 62//62 69//69 65//65
f 67//67 63//63 64//64
f 67//67 64//64 68//68
f 69//69 68//68 64//64
f 69//69 64//64 65//65
f 62//62 63//63 67//67
f 62//62 67//67 66//66

g glass
f 5//5 6//6 14//14
f 5//5 14//14 13//13
f 5//5 13//13 15//15
f 5//5 15//15 24//24
f 6//6 16//16 14//14
f 6//6 25//25 16//16

g carbon
f 15//15 16//16 25//25
f 15//15 25//25 24//24
f 74//74 75//75 76//76
f 74//74 76//76 77//77
f 71//71 70//70 73//73
f 71//71 73//73 72//72
f 70//70 74//74 77//77
f 70//70 77//77 73//73
f 75//75 71//71 72//72
f 75//75 72//72 76//76
f 77//77 76//76 72//72
f 77//77 72//72 73//73
f 70//70 71//71 75//75
f 70//70 75//75 74//74
f 82//82 83//83 84//84
f 82//82 84//84 85//85
f 79//79 78//78 81//81
f 79//79 81//81 80//80
f 78//78 82//82 85//85
f 78//78 85//85 81//81
f 83//83 79//79 80//80
f 83//83 80//80 84//84
f 85//85 84//84 80//80
f 85//85 80//80 81//81
f 78//78 79//79 83//83
f 78//78 83//83 82//82
f 90//90 91//91 92//92
f 90//90 92//92 93//93
f 87//87 86//86 89//89
f 87//87 89//89 88//88
f 86//86 90//90 93//93
f 86//86 93//93 89//89
f 91//91 87//87 88//88
f 91//91 88//88 92//92
f 93//93 92//92 88//88
f 93//93 88//88 89//89
f 86//86 87//87 91//91
f 86//86 91//91 90//90
f 26//26 27//27 29//29
f 26//26 29//29 28//28
f 98//98 99//99 100//100
f 98//98 100//100 101//101
f 95//95 94//94 97//97
f 95//95 97//97 96//96
f 94//94 98//98 101//101
f 94//94 101//101 97//97
f 99//99 95//95 96//96
f 99//99 96//96 100//100
f 101//101 100//100 96//96
f 101//101 96//96 97//97
f 94//94 95//95 99//99
f 94//94 99//99 98//98

g taillight
f 106//106 107//107 108//108
f 106//106 108//108 109//109
f 103//103 102//102 105//105
f 103//103 105//105 104//104
f 102//102 106//106 109//109
f 102//102 109//109 105//105
f 107//107 103//103 104//104
f 107//107 104//104 108//108
f 109//109 108//108 104//104
f 109//109 104//104 105//105
f 102//102 103//103 107//107
f 102//102 107//107 106//106
f 114//114 115//115 116//116
f 114//114 116//116 117//117
f 111//111 110//110 113//113
f 111//111 113//113 112//112
f 110//110 114//114 117//117
f 110//110 117//117 113//113
f 115//115 111//111 112//112
f 115//115 112//112 116//116
f 117//117 116//116 112//112
f 117//117 112//112 113//113
f 110//110 111//111 115//115
f 110//110 115//115 114//114
f 122//122 123//123 124//124
f 122//122 124//124 125//125
f 119//119 118//118 121//121
f 119//119 121//121 120//120
f 118//118 122//122 125//125
f 118//118 125//125 121//121
f 123//123 119//119 120//120
f 123//123 120//120 124//124
f 125//125 124//124 120//120
f 125//125 120//120 121//121
f 118//118 119//119 123//123
f 118//118 123//123 122//122
f 130//130 131//131 132//132
f 130//130 132//132 133//133
f 127//127 126//126 129//129
f 127//127 129//129 128//128
f 126//126 130//130 133//133
f 126//126 133//133 129//129
f 131//131 127//127 128//128
f 131//131 128//128 132//132
f 133//133 132//132 128//128
f 133//133 128//128 129//129
f 126//126 127//127 131//131
f 126//126 131//131 130//130

g exhaust
f 138//138 139//139 140//140
f 138//138 140//140 141//141
f 135//135 134//134 137//137
f 135//135 137//137 136//136
f 134//134 138//138 141//141
f 134//134 141//141 137//137
f 139//139 135//135 136//136
f 139//139 136//136 140//140
f 141//141 140//140 136//136
f 141//141 136//136 137//137
f 134//134 135//135 139//139
f 134//134 139//139 138//138
f 146//146 147//147 148//148
f 146//146 148//148 149//149
f 143//143 142//142 145//145
f 143//143 145//145 144//144
f 142//142 146//146 149//149
f 142//142 149//149 145//145
f 147//147 143//143 144//144
f 147//147 144//144 148//148
f 149//149 148//148 144//144
f 149//149 144//144 145//145
f 142//142 143//143 147//147
f 142//142 147//147 146//146

g tire
f 150//150 151//151 152//152
f 150//150 152//152 153//153
f 154//154 155//155 156//156
f 154//154 156//156 157//157
f 158//158 159//159 160//160
f 158//158 160//160 161//161
f 162//162 163//163 164//164
f 162//162 164//164 165//165
f 166//166 167//167 168//168
f 166//166 168//168 169//169
f 170//170 171//171 172//172
f 170//170 172//172 173//173
f 174//174 175//175 176//176
f 174//174 176//176 177//177
f 178//178 179//179 180//180
f 178//178 180//180 181//181
f 182//182 183//183 184//184
f 182//182 184//184 185//185
f 186//186 187//187 188//188
f 186//186 188//188 189//189
f 190//190 191//191 192//192
f 190//190 192//192 193//193
f 194//194 195//195 196//196
f 194//194 196//196 197//197
f 198//198 199//199 200//200
f 198//198 200//200 201//201
f 202//202 203//203 204//204
f 202//202 204//204 205//205
f 206//206 207//207 208//208
f 206//206 208//208 209//209
f 210//210 211//211 212//212
f 210//210 212//212 213//213
f 247//247 248//248 249//249
f 247//247 249//249 250//250
f 251//251 252//252 253//253
f 251//251 253//253 254//254
f 255//255 256//256 257//257
f 255//255 257//257 258//258
f 259//259 260//260 261//261
f 259//259 261//261 262//262
f 263//263 264//264 265//265
f 263//263 265//265 266//266
f 267//267 268//268 269//269
f 267//267 269//269 270//270
f 271//271 272//272 273//273
f 271//271 273//273 274//274
f 275//275 276//276 277//277
f 275//275 277//277 278//278
f 279//279 280//280 281//281
f 279//279 281//281 282//282
f 283//283 284//284 285//285
f 283//283 285//285 286//286
f 287//287 288//288 289//289
f 287//287 289//289 290//290
f 291//291 292//292 293//293
f 291//291 293//293 294//294
f 295//295 296//296 297//297
f 295//295 297//297 298//298
f 299//299 300//300 301//301
f 299//299 301//301 302//302
f 303//303 304//304 305//305
f 303//303 305//305 306//306
f 307//307 308//308 309//309
f 307//307 309//309 310//310
f 344//344 345//345 346//346
f 344//344 346//346 347//347
f 348//348 349//349 350//350
f 348//348 350//350 351//351
f 352//352 353//353 354//354
f 352//352 354//354 355//355
f 356//356 357//357 358//358
f 356//356 358//358 359//359
f 360//360 361//361 362//362
f 360//360 362//362 363//363
f 364//364 365//365 366//366
f 364//364 366//366 367//367
f 368//368 369//369 370//370
f 368//368 370//370 371//371
f 372//372 373//373 374//374
f 372//372 374//374 375//375
f 376//376 377//377 378//378
f 376//376 378//378 379//379
f 380//380 381//381 382//382
f 380//380 382//382 383//383
f 384//384 385//385 386//386
f 384//384 386//386 387//387
f 388//388 389//389 390//390
f 388//388 390//390 391//391
f 392//392 393//393 394//394
f 392//392 394//394 395//395
f 396//396 397//397 398//398
f 396//396 398//398 399//399
f 400//400 401//401 402//402
f 400//400 402//402 403//403
f 404//404 405//405 406//406
f 404//404 406//406 407//407
f 441//441 442//442 443//443
f 441//441 443//443 444//444
f 445//445 446//446 447//447
f 445//445 447//447 448//448
f 449//449 450//450 451//451
f 449//449 451//451 452//452
f 453//453 454//454 455//455
f 453//453 455//455 456//456
f 457//457 458//458 459//459
f 457//457 459//459 460//460
f 461//461 462//462 463//463
f 461//461 463//463 464//464
f 465//465 466//466 467//467
f 465//465 467//467 468//468
f 469//469 470//470 471//471
f 469//469 471//471 472//472
f 473//473 474//474 475//475
f 473//473 475//475 476//476
f 477//477 478//478 479//479
f 477//477 479//479 480//480
f 481//481 482//482 483//483
f 481//481 483//483 484//484
f 485//485 486//486 487//487
f 485//485 487//487 488//488
f 489//489 490//490 491//491
f 489//489 491//491 492//492
f 493//493 494//494 495//495
f 493//493 495//495 496//496
f 497//497 498//498 499//499
f 497//497 499//499 500//500
f 501//501 502//502 503//503
f 501//501 503//503 504//504

g rim
f 214//214 216//216 215//215
f 214//214 218//218 217//217
f 214//214 220//220 219//219
f 214//214 222//222 221//221
f 214//214 224//224 223//223
f 214//214 226//226 225//225
f 214//214 228//228 227//227
f 214//214 230//230 229//229
f 214//214 232//232 231//231
f 214//214 234//234 233//233
f 214//214 236//236 235//235
f 214//214 238//238 237//237
f 214//214 240//240 239//239
f 214//214 242//242 241//241
f 214//214 244//244 243//243
f 214//214 246//246 245//245
f 311//311 312//312 313//313
f 311//311 314//314 315//315
f 311//311 316//316 317//317
f 311//311 318//318 319//319
f 311//311 320//320 321//321
f 311//311 322//322 323//323
f 311//311 324//324 325//325
f 311//311 326//326 327//327
f 311//311 328//328 329//329
f 311//311 330//330 331//331
f 311//311 332//332 333//333
f 311//311 334//334 335//335
f 311//311 336//336 337//337
f 311//311 338//338 339//339
f 311//311 340//340 341//341
f 311//311 342//342 343//343
f 408//408 410//410 409//409
f 408//408 412//412 411//411
f 408//408 414//414 413//413
f 408//408 416//416 415//415
f 408//408 418//418 417//417
f 408//408 420//420 419//419
f 408//408 422//422 421//421
f 408//408 424//424 423//423
f 408//408 426//426 425//425
f 408//408 428//428 427//427
f 408//408 430//430 429//429
f 408//408 432//432 431//431
f 408//408 434//434 433//433
f 408//408 436//436 435//435
f 408//408 438//438 437//437
f 408//408 440//440 439//439
f 505//505 506//506 507//507
f 505//505 508//508 509//509
f 505//505 510//510 511//511
f 505//505 512//512 513//513
f 505//505 514//514 515//515
f 505//505 516//516 517//517
f 505//505 518//518 519//519
f 505//505 520//520 521//521
f 505//505 522//522 523//523
f 505//505 524//524 525//525
f 505//505 526//526 527//527
f 505//505 528//528 529//529
f 505//505 530//530 531//531
f 505//505 532//532 533//533
f 505//505 534//534 535//535
f 505//505 536//536 537//537

